PathFileType	4	(X/Y/Z)	C:/Users/opensim2020/Desktop/walking_exp_matlab/subject02_walking13_straight_02.trc																																																																																																																									
DataRate	CameraRate	NumFrames	NumMarkers	Units	OrigDataRate	OrigDataStartFrame	OrigNumFrames																																																																																																																					
100	100	4	41	mm	100	944	125																																																																																																																					
Frame#	Time	LFHD			RFHD			LBHD			RBHD			C7			T10			CLAV			STRN			RBAK			LSHO			LUPA			LELB			LFRM			LWRA			LWRB			LFIN			RSHO			RUPA			RELB			RFRM			RWRA			RWRB			RFIN			LASI			RASI			LPSI			RPSI			LTHI			LKNE			LTIB			LANK			LHEE			LTOE			RTHI			RKNE			RTIB			RANK			RHEE			RTOE			*39			*40		
		X1	Y1	Z1	X2	Y2	Z2	X3	Y3	Z3	X4	Y4	Z4	X5	Y5	Z5	X6	Y6	Z6	X7	Y7	Z7	X8	Y8	Z8	X9	Y9	Z9	X10	Y10	Z10	X11	Y11	Z11	X12	Y12	Z12	X13	Y13	Z13	X14	Y14	Z14	X15	Y15	Z15	X16	Y16	Z16	X17	Y17	Z17	X18	Y18	Z18	X19	Y19	Z19	X20	Y20	Z20	X21	Y21	Z21	X22	Y22	Z22	X23	Y23	Z23	X24	Y24	Z24	X25	Y25	Z25	X26	Y26	Z26	X27	Y27	Z27	X28	Y28	Z28	X29	Y29	Z29	X30	Y30	Z30	X31	Y31	Z31	X32	Y32	Z32	X33	Y33	Z33	X34	Y34	Z34	X35	Y35	Z35	X36	Y36	Z36	X37	Y37	Z37	X38	Y38	Z38	X39	Y39	Z39	X40	Y40	Z40	X41	Y41	Z41
																																																																																																																												
79	0.78	65.86422	1698.08704	-1484.30127	40.0973	1671.93994	-1344.43799	-71.2847	1645.35608	-1517.70386	-108.42456	1619.90247	-1380.51208	-153.93011	1496.00574	-1454.0238	-194.01224	1213.46143	-1459.82336	-12.58174	1429.35266	-1464.9574	46.63256	1262.54175	-1453.5531	-207.67236	1314.2157	-1394.58411	-85.12011	1472.04395	-1632.65442	-157.86099	1285.03271	-1707.67932	-205.31636	1154.59631	-1706.76758	-258.48804	1037.83142	-1724.51294	-280.94125	897.51312	-1690.27783	-310.20602	923.94922	-1732.12878	-346.52499	863.37738	-1718.99731	-87.11277	1461.76953	-1270.74536	-86.66541	1280.40698	-1170.66589	-29.36466	1146.45605	-1129.42395	70.76589	1074.25635	-1129.12573	185.82524	1018.95837	-1168.9812	160.47812	981.29108	-1134.70239	230.59679	969.46558	-1139.1759	60.62752	967.40961	-1573.20959	16.12065	938.38995	-1319.51086	-162.02733	1003.26239	-1529.96179	-182.90892	999.34546	-1419.58215	78.77399	671.82684	-1658.61475	103.5726	470.91052	-1633.53076	107.83063	275.31638	-1636.73828	184.21225	66.57827	-1619.28259	157.16034	35.59401	-1567.85693	343.37079	58.13147	-1622.67993	-152.07396	653.62079	-1282.42664	-215.14052	454.35034	-1323.91516	-341.99805	312.40005	-1333.38745	-445.25412	150.06723	-1377.38281	-492.54279	117.37059	-1438.86841	-330.43469	36.72427	-1361.37305	-38.49781	1773.93945	-1405.2655	-2845.83228	1034.25415	3357.37646
80	0.79	79.53078	1697.85266	-1484.66858	53.10785	1671.41956	-1345.19592	-57.45085	1645.35852	-1518.71912	-95.32382	1619.57336	-1382.00891	-141.36253	1495.26013	-1456.24353	-179.3858	1212.83362	-1462.40051	0.69102	1429.41235	-1466.77112	60.6944	1263.27612	-1455.6759	-194.02576	1313.05652	-1397.38171	-71.63087	1472.06897	-1634.64417	-143.35548	1284.77588	-1710.25293	-190.11635	1153.84924	-1709.33081	-242.66454	1036.84778	-1727.271	-264.89926	896.96423	-1693.49304	-294.18732	923.0097	-1735.4259	-331.06418	862.73596	-1721.97485	-74.62239	1460.76563	-1272.42737	-75.40184	1278.48669	-1173.33728	-18.49408	1144.99207	-1131.23792	81.69935	1072.87573	-1130.74646	197.60509	1018.2226	-1169.86572	172.08261	980.47504	-1136.05627	242.56935	969.19629	-1139.8186	76.47581	968.46008	-1576.93384	34.11253	937.88837	-1323.07117	-145.59756	1002.97247	-1532.56238	-166.60115	997.94519	-1422.13818	94.457	673.52985	-1660.50574	117.4342	472.20056	-1636.76282	120.1465	277.38745	-1637.61292	191.24066	65.59473	-1623.01733	160.47766	37.30655	-1571.78955	349.87634	49.5088	-1620.64917	-135.0098	653.28723	-1283.13013	-197.94394	454.46588	-1321.604	-329.39044	316.63507	-1332.05725	-437.62167	158.00372	-1375.42993	-484.77167	128.10504	-1437.67871	-329.69498	36.65479	-1360.91626	-25.22309	1773.52161	-1406.03455	-2845.09717	1034.38379	3360.34619
81	0.8	92.96113	1698.42017	-1485.53149	66.08897	1671.24805	-1345.948	-43.94372	1646.05371	-1519.9585	-82.2737	1619.81506	-1383.47241	-128.43208	1495.34961	-1458.47424	-164.78758	1212.22949	-1464.40149	13.74332	1430.09497	-1468.55505	74.73672	1264.30554	-1457.86658	-180.38603	1312.06323	-1399.96411	-58.33798	1472.39941	-1636.61707	-128.51582	1284.66467	-1712.96643	-174.75504	1153.59265	-1712.61584	-226.24757	1035.99451	-1730.6344	-247.06808	896.2655	-1697.09741	-277.05078	921.81598	-1738.97205	-314.06244	861.59967	-1725.29871	-62.571	1460.10278	-1273.89282	-63.30777	1277.24438	-1175.27124	-7.70466	1143.40039	-1133.53369	92.57924	1071.50684	-1132.47632	208.46181	1017.15302	-1170.95276	183.12401	979.27252	-1137.52222	253.3647	968.26105	-1140.69312	92.07519	969.71503	-1580.77051	51.86207	937.58398	-1327.05322	-129.45724	1003.6228	-1535.03162	-150.58853	997.30151	-1424.34387	109.37078	674.95856	-1663.15723	133.64554	474.7897	-1639.63232	132.70122	280.31259	-1644.69788	196.20541	65.21661	-1624.57764	162.20274	37.94457	-1573.97021	353.65109	43.46009	-1620.38159	-116.88457	653.13324	-1284.16821	-178.9646	454.41888	-1318.86316	-314.9184	321.13461	-1330.48682	-428.31647	166.54628	-1374.22546	-474.78793	139.37068	-1437.17981	-328.66226	36.68161	-1360.68726	-11.88687	1773.6438	-1406.70068	NaN	NaN	NaN
82	0.81	106.39942	1698.77637	-1486.00952	79.0799	1671.26428	-1346.65869	-30.6358	1647.13159	-1521.50122	-69.24605	1620.31909	-1384.88757	-115.29257	1496.02405	-1460.47449	-150.40927	1212.14807	-1466.14941	26.80133	1431.09863	-1470.23389	88.75263	1265.4762	-1459.7699	-167.1564	1311.68115	-1402.85999	-45.13778	1473.10986	-1638.53674	-113.17415	1284.58862	-1715.45276	-158.71014	1153.21973	-1715.81567	-209.22945	1035.26941	-1734.37793	-227.68201	895.0611	-1701.35852	-258.72128	920.46698	-1742.78345	-295.49084	860.09808	-1729.04333	-50.13204	1459.62598	-1274.84534	-51.91638	1276.29346	-1177.96204	2.983	1141.99707	-1136.06909	103.36206	1069.98303	-1134.32361	219.29915	1015.51953	-1171.9386	193.49524	977.67389	-1139.05493	264.15961	966.80005	-1141.45642	107.52286	971.23407	-1584.56213	69.16135	937.55713	-1331.43311	-113.77784	1005.24158	-1537.21179	-134.46983	997.69293	-1425.97852	122.62148	676.81268	-1666.94824	150.74654	477.3418	-1640.54236	146.48291	283.58502	-1651.42517	197.4948	66.52362	-1623.82043	163.30553	38.7187	-1573.65845	354.88681	40.15104	-1621.8634	-97.95103	652.77643	-1285.2937	-158.29131	453.8147	-1315.97668	-298.33163	325.50104	-1328.60681	-416.47028	175.04977	-1372.93359	-462.2774	151.08607	-1437.02112	-326.68768	36.81968	-1360.87305	1.49743	1774.19006	-1407.37976	-2846.05859	1034.23828	3356.86963
